<?xml version="1.0" encoding="utf-8"?>
<!-- Generator: Adobe Illustrator 28.0.0, SVG Export Plug-In . SVG Version: 6.00 Build 0)  -->
<svg version="1.1" id="Layer_1" xmlns="http://www.w3.org/2000/svg" xmlns:xlink="http://www.w3.org/1999/xlink" x="0px" y="0px"
	 viewBox="0 0 577.4 150" style="enable-background:new 0 0 577.4 150;" xml:space="preserve">
<style type="text/css">
	.st0{clip-path:url(#SVGID_00000040563124939790882010000006836933919472499623_);}
	.st1{fill:#4C59AE;}
</style>
<g>
	<g>
		<defs>
			<rect id="SVGID_1_" x="5" y="5" width="128" height="140"/>
		</defs>
		<clipPath id="SVGID_00000169559943797902091750000007168424696937499568_">
			<use xlink:href="#SVGID_1_"  style="overflow:visible;"/>
		</clipPath>
		<g style="clip-path:url(#SVGID_00000169559943797902091750000007168424696937499568_);">
			<path class="st1" d="M131.9,103.9C127.2,129.5,103.4,145,69,145c-34.4,0-58.2-15.5-62.9-41.1c-7.4-40,24.8-47.3,43.7-62.6
				C59.9,33,55.5,18.8,50,8.4c-0.8-1.4,0.4-3.1,1.9-2.7c7.8,2.1,13.8,8.1,13.8,16.9c0,22.3-46.1,30.6-46.1,63.3
				c0,23.7,24.3,35.9,49.3,35.9s49.3-12.1,49.3-35.9c0-32.6-46.1-41-46.1-63.3c0-8.7,6-14.8,13.8-16.9C87.6,5.3,88.8,7,88,8.4
				c-5.5,10.4-9.9,24.6,0.2,32.8C107.1,56.6,139.3,63.8,131.9,103.9z"/>
			<path class="st1" d="M69,112.6c11.9,0,21.5-8.8,21.5-19.6c0-10.8-9.6-19.6-21.5-19.6c-11.9,0-21.5,8.8-21.5,19.6
				C47.5,103.9,57.1,112.6,69,112.6z"/>
		</g>
	</g>
	<path class="st1" d="M170.5,127c-2.2,0-3.8-1.3-3.8-3.4c0-2.2,1.3-3.1,2.6-4.2c1.3-0.9,2.6-2,2.6-4.2v-65c0-2.2-1.3-3.2-2.6-4.2
		c-1.3-1-2.6-2.1-2.6-4.2c0-2.1,1.6-3.4,3.8-3.4h59.8c3.1,0,4.9,1.8,4.9,4.7v16.2c0,2.1-1.3,3.6-3.4,3.6c-2.6,0-3.9-2.7-5.3-6.4
		c-1.8-4.9-4.3-10.9-11.7-10.9h-23.4V78h15.7c4.4,0,6.4-2.7,7.8-5.3c1.3-2.2,2.5-3.9,4.7-3.9s3.5,1.6,3.5,3.8v18.2
		c0,2.2-1.3,3.8-3.5,3.8s-3.4-1.7-4.7-3.9c-1.4-2.6-3.4-5.3-7.8-5.3h-15.7v30c0,2.2,1.6,3.2,3.2,4.2c1.6,0.9,2.9,1.9,2.9,4.2
		c0,2.1-1.6,3.4-3.9,3.4H170.5z M266.7,128.3c-20.1,0-33.8-13.5-33.8-34.4c0-20.5,13.6-34.5,34.3-34.5c15.3,0,25.9,7.5,25.9,18.3
		c0,13.5-16,18.9-40.6,19.4c2.7,10.1,9.4,18.8,20.7,18.8c8.2,0,12-3.9,14.7-6.5c1.7-1.6,2.9-2.6,4-2.6c1.3,0,2.2,0.8,2.2,3.2
		C294.1,118.3,284.1,128.3,266.7,128.3z M250.9,85.4c0,2.1,0.1,4.2,0.5,6.4c18.6-0.5,25.1-5.7,25.1-14.2c0-7-4.3-12.4-11.1-12.4
		C256.4,65.2,250.9,74.5,250.9,85.4z M304,127c-2.1,0-3.5-1.3-3.5-3.1c0-2,1.2-2.9,2.3-3.6c1.3-1,2.5-2,2.5-4V72.1
		c0-2.3-1.3-3.4-2.6-4.3c-1.2-0.9-2.3-1.8-2.3-3.8c0-2,1.4-3.4,3.5-3.4h14.8c3,0,4.8,1.8,4.8,4.9v5.7c4-7.4,10.3-12,17.3-12
		c6.2,0,11.2,3.5,11.2,10c0,5.5-3.6,9.5-9.4,9.5c-3.6,0-5.9-1.8-7.4-3.9c-1.3-1.4-2.6-2.5-4.3-2.5c-2.6,0-5.6,2.2-7.4,7.5v36.1
		c0,1.9,1.3,3,3,3.8c1.3,0.8,2.9,1.8,2.9,3.9c0,1.8-1.4,3.1-3.5,3.1H304z M381.5,128.3c-10.7,0-17.5-6.8-17.5-16.8V67.2h-5.7
		c-2,0-3.2-1.4-3.2-3.4c0-2.3,2-3.1,4.8-4c7-2.2,11.8-5.7,15-12.6c1.2-2.3,2.2-4,4.3-4c1.8,0,3.1,1.3,3.1,3.2v14.3h14.2
		c2,0,3.2,1.3,3.2,3.2c0,2.1-1.3,3.2-3.2,3.2h-14.2V111c0,4.3,2.5,7,6.4,7c2.2,0,3.9-0.9,5.3-1.7c1.3-0.8,2.5-1.3,3.4-1.3
		c1.6,0,2.5,1.2,2.5,2.6C399.7,121.8,392.1,128.3,381.5,128.3z M418.6,52.4c-6.2,0-10.4-3.9-10.4-9.6s4.2-9.6,10.4-9.6
		S429,37,429,42.8S424.8,52.4,418.6,52.4z M408.8,127c-2.1,0-3.5-1.3-3.5-3.1c0-2,1.2-2.9,2.3-3.6c1.3-1,2.5-2,2.5-4V72.1
		c0-2.3-1.3-3.4-2.6-4.3c-1.2-0.9-2.3-1.8-2.3-3.8c0-2,1.4-3.4,3.5-3.4h14.8c3,0,4.8,1.8,4.8,4.9v50.6c0,2.1,1,3,2.5,4
		c1.2,0.8,2.3,1.7,2.3,3.6c0,1.8-1.4,3.1-3.5,3.1H408.8z M443.1,127c-2.1,0-3.5-1.3-3.5-3.1c0-2,1.2-2.9,2.3-3.6c1.3-1,2.5-2,2.5-4
		V47.4c0-2.3-1.3-3.4-2.6-4.3c-1.2-0.9-2.3-1.8-2.3-3.8c0-1.9,1.4-3.4,3.5-3.4h14.8c3,0,4.8,1.8,4.8,4.9v75.3c0,2.1,1,3,2.5,4
		c1.2,0.8,2.3,1.7,2.3,3.6c0,1.8-1.4,3.1-3.5,3.1H443.1z M487.3,52.4c-6.2,0-10.4-3.9-10.4-9.6s4.2-9.6,10.4-9.6s10.4,3.9,10.4,9.6
		S493.6,52.4,487.3,52.4z M477.6,127c-2.1,0-3.5-1.3-3.5-3.1c0-2,1.2-2.9,2.3-3.6c1.3-1,2.5-2,2.5-4V72.1c0-2.3-1.3-3.4-2.6-4.3
		c-1.2-0.9-2.3-1.8-2.3-3.8c0-2,1.4-3.4,3.5-3.4h14.8c3,0,4.8,1.8,4.8,4.9v50.6c0,2.1,1,3,2.5,4c1.2,0.8,2.3,1.7,2.3,3.6
		c0,1.8-1.4,3.1-3.5,3.1H477.6z M529,128.3c-12.6,0-21.2-6.8-21.2-17.6c0-16.2,19.5-21.8,41.5-22.1v-9c0-10.1-5.3-14.4-12.6-14.4
		c-7.4,0-8.7,4.7-9.9,9.2c-1,4.6-2.1,8.8-8.6,8.8c-5.3,0-8.1-3-8.1-7.4c0-8.3,10.3-16.5,27.8-16.5c16.9,0,29.5,7.5,29.5,24v32.6
		c0,2.3,1.4,3.4,2.7,4.4c1.2,0.8,2.2,1.6,2.2,3.2c0,2.9-4,4.6-9.2,4.6c-7,0-11.7-3.2-13.3-8.4C544.7,125.2,537.4,128.3,529,128.3z
		 M525.5,106.6c0,7.3,6,12.1,13.3,12.1c4.2,0,8.1-1.6,10.5-4.3V96.4c-2.1-1-4.3-1.7-7.3-1.7C532.4,94.8,525.5,99.2,525.5,106.6z"/>
</g>
</svg>
